<svg viewBox="0 0 522 522" xmlns="http://www.w3.org/2000/svg">
  <polygon style="" points="93.119 35.937 93.119 75.895 159.449 150.217 379.218 160.606 453.539 79.092 447.945 37.537 363.234 35.937 271.33 118.252 184.223 36.737"></polygon>
  <polygon style="" points="153.056 169.33 363.234 178.921 353.645 186.912 447.145 282.81 445.547 301.99 332.867 309.183 262.541 237.259 185.821 310.781 79.534 313.179 81.93 282.012 167.441 187.712"></polygon>
  <polygon style="" points="191.416 328.274 94.718 330.672 95.518 387.412 180.227 438.557 181.825 345.856"></polygon>
  <polygon style="" points="353.645 321.081 367.23 337.863 370.427 488.105 456.736 400.197 457.534 316.286"></polygon>
</svg>