<svg viewBox="0 0 522 522" xmlns="http://www.w3.org/2000/svg">
  <path style="stroke: rgb(0, 0, 0); fill: #000; stroke-width: 15px;" d="M 239.503 36.621 L 243.077 49.942 L 237.554 51.242 L 235.929 116.221 L 226.832 119.795 L 219.035 193.547 L 191.093 218.565 L 207.663 277.651 L 173.874 288.698 L 182.321 315.989 L 164.127 320.213 L 195.642 468.114 L 350.294 467.465 L 368.163 373.569 L 356.467 368.966 L 360.041 352.721 L 338.598 345.898 L 351.269 322.18 L 315.205 297.813 L 356.142 235.107 L 311.631 203.701 L 324.302 162.438 L 278.816 146.518 L 276.542 115.653 L 282.39 85.112 L 276.217 74.716 L 260.297 74.048 L 259.972 51.305 L 253.149 51.63 L 252.005 37.682 L 248.458 32.991 L 246.513 34.364 L 246.68 31.096 L 249.602 30.931 L 249.275 29.737 L 246.773 29.737 L 246.825 28.414 L 245.369 28.528 L 245.257 29.787 L 242.623 29.901 C 242.623 29.901 243.237 31.734 242.933 31.227 L 245.14 31.16 L 244.781 35.132 L 239.503 36.621 Z"></path>
</svg>