v -0.0 -0.5 0.5
vn -0.1950903832912445 0.0 0.9807853102684021
v -0.0 0.5 0.5
vn -0.1950903832912445 0.0 0.9807853102684021
v -0.19134172797203064 0.5 0.4619397521018982
vn -0.1950903832912445 0.0 0.9807853102684021
v -0.19134172797203064 -0.5 0.4619397521018982
vn -0.1950903832912445 0.0 0.9807853102684021
v -0.19134172797203064 -0.5 0.4619397521018982
vn -0.5555702447891235 0.0 0.8314696550369263
v -0.19134172797203064 0.5 0.4619397521018982
vn -0.5555702447891235 0.0 0.8314696550369263
v -0.3535533845424652 0.5 0.3535533845424652
vn -0.5555702447891235 0.0 0.8314696550369263
v -0.3535533845424652 -0.5 0.3535533845424652
vn -0.5555702447891235 0.0 0.8314696550369263
v -0.3535533845424652 -0.5 0.3535533845424652
vn -0.8314695358276367 0.0 0.5555701851844788
v -0.3535533845424652 0.5 0.3535533845424652
vn -0.8314695358276367 0.0 0.5555701851844788
v -0.4619397521018982 0.5 0.19134171307086945
vn -0.8314695358276367 0.0 0.5555701851844788
v -0.4619397521018982 -0.5 0.19134171307086945
vn -0.8314695358276367 0.0 0.5555701851844788
v -0.4619397521018982 -0.5 0.19134171307086945
vn -0.9807853102684021 0.0 0.1950903832912445
v -0.4619397521018982 0.5 0.19134171307086945
vn -0.9807853102684021 0.0 0.1950903832912445
v -0.5 0.5 -2.1855694143368964e-08
vn -0.9807853102684021 0.0 0.1950903832912445
v -0.5 -0.5 -2.1855694143368964e-08
vn -0.9807853102684021 0.0 0.1950903832912445
v -0.5 -0.5 -2.1855694143368964e-08
vn -0.9807852506637573 0.0 -0.1950903683900833
v -0.5 0.5 -2.1855694143368964e-08
vn -0.9807852506637573 0.0 -0.1950903683900833
v -0.4619397521018982 0.5 -0.19134175777435303
vn -0.9807852506637573 0.0 -0.1950903683900833
v -0.4619397521018982 -0.5 -0.19134175777435303
vn -0.9807852506637573 0.0 -0.1950903683900833
v -0.4619397521018982 -0.5 -0.19134175777435303
vn -0.8314695358276367 0.0 -0.5555703043937683
v -0.4619397521018982 0.5 -0.19134175777435303
vn -0.8314695358276367 0.0 -0.5555703043937683
v -0.3535533845424652 0.5 -0.3535533845424652
vn -0.8314695358276367 0.0 -0.5555703043937683
v -0.3535533845424652 -0.5 -0.3535533845424652
vn -0.8314695358276367 0.0 -0.5555703043937683
v -0.3535533845424652 -0.5 -0.3535533845424652
vn -0.5555702447891235 0.0 -0.8314695358276367
v -0.3535533845424652 0.5 -0.3535533845424652
vn -0.5555702447891235 0.0 -0.8314695358276367
v -0.19134174287319183 0.5 -0.4619397521018982
vn -0.5555702447891235 0.0 -0.8314695358276367
v -0.19134174287319183 -0.5 -0.4619397521018982
vn -0.5555702447891235 0.0 -0.8314695358276367
v -0.19134174287319183 -0.5 -0.4619397521018982
vn -0.19509044289588928 0.0 -0.9807852506637573
v -0.19134174287319183 0.5 -0.4619397521018982
vn -0.19509044289588928 0.0 -0.9807852506637573
v -7.549790126404332e-08 0.5 -0.5
vn -0.19509044289588928 0.0 -0.9807852506637573
v -7.549790126404332e-08 -0.5 -0.5
vn -0.19509044289588928 0.0 -0.9807852506637573
v -7.549790126404332e-08 -0.5 -0.5
vn 0.1950901299715042 0.0 -0.9807853102684021
v -7.549790126404332e-08 0.5 -0.5
vn 0.1950901299715042 0.0 -0.9807853102684021
v 0.1913416087627411 0.5 -0.46193981170654297
vn 0.1950901299715042 0.0 -0.9807853102684021
v 0.1913416087627411 -0.5 -0.46193981170654297
vn 0.1950901299715042 0.0 -0.9807853102684021
v 0.1913416087627411 -0.5 -0.46193981170654297
vn 0.5555699467658997 0.0 -0.8314697742462158
v 0.1913416087627411 0.5 -0.46193981170654297
vn 0.5555699467658997 0.0 -0.8314697742462158
v 0.35355329513549805 0.5 -0.35355350375175476
vn 0.5555699467658997 0.0 -0.8314697742462158
v 0.35355329513549805 -0.5 -0.35355350375175476
vn 0.5555699467658997 0.0 -0.8314697742462158
v 0.35355329513549805 -0.5 -0.35355350375175476
vn 0.8314694762229919 0.0 -0.5555704236030579
v 0.35355329513549805 0.5 -0.35355350375175476
vn 0.8314694762229919 0.0 -0.5555704236030579
v 0.4619397521018982 0.5 -0.19134178757667542
vn 0.8314694762229919 0.0 -0.5555704236030579
v 0.4619397521018982 -0.5 -0.19134178757667542
vn 0.8314694762229919 0.0 -0.5555704236030579
v 0.4619397521018982 -0.5 -0.19134178757667542
vn 0.9807852506637573 0.0 -0.19509030878543854
v 0.4619397521018982 0.5 -0.19134178757667542
vn 0.9807852506637573 0.0 -0.19509030878543854
v 0.5 0.5 5.962440319251527e-09
vn 0.9807852506637573 0.0 -0.19509030878543854
v 0.5 -0.5 5.962440319251527e-09
vn 0.9807852506637573 0.0 -0.19509030878543854
v 0.5 -0.5 5.962440319251527e-09
vn 0.9807851910591125 0.0 0.19509044289588928
v 0.5 0.5 5.962440319251527e-09
vn 0.9807851910591125 0.0 0.19509044289588928
v 0.4619397222995758 0.5 0.1913418024778366
vn 0.9807851910591125 0.0 0.19509044289588928
v 0.4619397222995758 -0.5 0.1913418024778366
vn 0.9807851910591125 0.0 0.19509044289588928
v 0.4619397222995758 -0.5 0.1913418024778366
vn 0.8314694762229919 0.0 0.5555704832077026
v 0.4619397222995758 0.5 0.1913418024778366
vn 0.8314694762229919 0.0 0.5555704832077026
v 0.35355326533317566 0.5 0.35355350375175476
vn 0.8314694762229919 0.0 0.5555704832077026
v 0.35355326533317566 -0.5 0.35355350375175476
vn 0.8314694762229919 0.0 0.5555704832077026
v -0.3535533845424652 0.5 0.3535533845424652
vn -9.734653971804619e-09 1.0 0.0
v -0.19134172797203064 0.5 0.4619397521018982
vn -9.734653971804619e-09 1.0 0.0
v -0.0 0.5 0.5
vn -9.734653971804619e-09 1.0 0.0
v 0.19134148955345154 0.5 0.46193987131118774
vn -9.734653971804619e-09 1.0 0.0
v 0.35355326533317566 0.5 0.35355350375175476
vn -9.734653971804619e-09 1.0 0.0
v 0.4619397222995758 0.5 0.1913418024778366
vn -9.734653971804619e-09 1.0 0.0
v 0.5 0.5 5.962440319251527e-09
vn -9.734653971804619e-09 1.0 0.0
v 0.4619397521018982 0.5 -0.19134178757667542
vn -9.734653971804619e-09 1.0 0.0
v 0.35355329513549805 0.5 -0.35355350375175476
vn -9.734653971804619e-09 1.0 0.0
v 0.1913416087627411 0.5 -0.46193981170654297
vn -9.734653971804619e-09 1.0 0.0
v -7.549790126404332e-08 0.5 -0.5
vn -9.734653971804619e-09 1.0 0.0
v -0.19134174287319183 0.5 -0.4619397521018982
vn -9.734653971804619e-09 1.0 0.0
v -0.3535533845424652 0.5 -0.3535533845424652
vn -9.734653971804619e-09 1.0 0.0
v -0.4619397521018982 0.5 -0.19134175777435303
vn -9.734653971804619e-09 1.0 0.0
v -0.5 0.5 -2.1855694143368964e-08
vn -9.734653971804619e-09 1.0 0.0
v -0.4619397521018982 0.5 0.19134171307086945
vn -9.734653971804619e-09 1.0 0.0
v 0.35355326533317566 -0.5 0.35355350375175476
vn 0.5555699467658997 0.0 0.8314697742462158
v 0.35355326533317566 0.5 0.35355350375175476
vn 0.5555699467658997 0.0 0.8314697742462158
v 0.19134148955345154 0.5 0.46193987131118774
vn 0.5555699467658997 0.0 0.8314697742462158
v 0.19134148955345154 -0.5 0.46193987131118774
vn 0.5555699467658997 0.0 0.8314697742462158
v 0.19134148955345154 -0.5 0.46193987131118774
vn 0.19509002566337585 0.0 0.9807853698730469
v 0.19134148955345154 0.5 0.46193987131118774
vn 0.19509002566337585 0.0 0.9807853698730469
v -0.0 0.5 0.5
vn 0.19509002566337585 0.0 0.9807853698730469
v -0.0 -0.5 0.5
vn 0.19509002566337585 0.0 0.9807853698730469
v 0.19134148955345154 -0.5 0.46193987131118774
vn -9.734653083626199e-09 -1.0 0.0
v -0.0 -0.5 0.5
vn -9.734653083626199e-09 -1.0 0.0
v -0.19134172797203064 -0.5 0.4619397521018982
vn -9.734653083626199e-09 -1.0 0.0
v -0.3535533845424652 -0.5 0.3535533845424652
vn -9.734653083626199e-09 -1.0 0.0
v -0.4619397521018982 -0.5 0.19134171307086945
vn -9.734653083626199e-09 -1.0 0.0
v -0.5 -0.5 -2.1855694143368964e-08
vn -9.734653083626199e-09 -1.0 0.0
v -0.4619397521018982 -0.5 -0.19134175777435303
vn -9.734653083626199e-09 -1.0 0.0
v -0.3535533845424652 -0.5 -0.3535533845424652
vn -9.734653083626199e-09 -1.0 0.0
v -0.19134174287319183 -0.5 -0.4619397521018982
vn -9.734653083626199e-09 -1.0 0.0
v -7.549790126404332e-08 -0.5 -0.5
vn -9.734653083626199e-09 -1.0 0.0
v 0.1913416087627411 -0.5 -0.46193981170654297
vn -9.734653083626199e-09 -1.0 0.0
v 0.35355329513549805 -0.5 -0.35355350375175476
vn -9.734653083626199e-09 -1.0 0.0
v 0.4619397521018982 -0.5 -0.19134178757667542
vn -9.734653083626199e-09 -1.0 0.0
v 0.5 -0.5 5.962440319251527e-09
vn -9.734653083626199e-09 -1.0 0.0
v 0.4619397222995758 -0.5 0.1913418024778366
vn -9.734653083626199e-09 -1.0 0.0
v 0.35355326533317566 -0.5 0.35355350375175476
vn -9.734653083626199e-09 -1.0 0.0
f 1//1 2//2 3//3
f 1//1 3//3 4//4
f 5//5 6//6 7//7
f 5//5 7//7 8//8
f 9//9 10//10 11//11
f 9//9 11//11 12//12
f 13//13 14//14 15//15
f 13//13 15//15 16//16
f 17//17 18//18 19//19
f 17//17 19//19 20//20
f 21//21 22//22 23//23
f 21//21 23//23 24//24
f 25//25 26//26 27//27
f 25//25 27//27 28//28
f 29//29 30//30 31//31
f 29//29 31//31 32//32
f 33//33 34//34 35//35
f 33//33 35//35 36//36
f 37//37 38//38 39//39
f 37//37 39//39 40//40
f 41//41 42//42 43//43
f 41//41 43//43 44//44
f 45//45 46//46 47//47
f 45//45 47//47 48//48
f 49//49 50//50 51//51
f 49//49 51//51 52//52
f 53//53 54//54 55//55
f 53//53 55//55 56//56
f 57//57 58//58 59//59
f 59//59 60//60 61//61
f 61//61 62//62 63//63
f 63//63 64//64 65//65
f 65//65 66//66 67//67
f 67//67 68//68 69//69
f 69//69 70//70 71//71
f 71//71 72//72 57//57
f 57//57 59//59 61//61
f 61//61 63//63 65//65
f 65//65 67//67 69//69
f 69//69 71//71 57//57
f 57//57 61//61 65//65
f 65//65 69//69 57//57
f 73//73 74//74 75//75
f 73//73 75//75 76//76
f 77//77 78//78 79//79
f 77//77 79//79 80//80
f 81//81 82//82 83//83
f 83//83 84//84 85//85
f 85//85 86//86 87//87
f 87//87 88//88 89//89
f 89//89 90//90 91//91
f 91//91 92//92 93//93
f 93//93 94//94 95//95
f 95//95 96//96 81//81
f 81//81 83//83 85//85
f 85//85 87//87 89//89
f 89//89 91//91 93//93
f 93//93 95//95 81//81
f 81//81 85//85 89//89
f 89//89 93//93 81//81
