v -0.0 -0.5 0.5
vn -0.8401681184768677 0.24253563582897186 0.4850712716579437
v -0.0 0.5 0.0
vn -0.8401681184768677 0.24253563582897186 0.4850712716579437
v -0.4330126941204071 -0.5 -0.2500000298023224
vn -0.8401681184768677 0.24253563582897186 0.4850712716579437
v -0.0 -0.5 0.5
vn -2.294183687467921e-08 -1.0 0.0
v -0.4330126941204071 -0.5 -0.2500000298023224
vn -2.294183687467921e-08 -1.0 0.0
v 0.4330127239227295 -0.5 -0.24999995529651642
vn -2.294183687467921e-08 -1.0 0.0
v -0.4330126941204071 -0.5 -0.2500000298023224
vn 8.346319901875177e-08 0.24253568053245544 -0.9701426029205322
v -0.0 0.5 0.0
vn 8.346319901875177e-08 0.24253568053245544 -0.9701426029205322
v 0.4330127239227295 -0.5 -0.24999995529651642
vn 8.346319901875177e-08 0.24253568053245544 -0.9701426029205322
v 0.4330127239227295 -0.5 -0.24999995529651642
vn 0.8401679992675781 0.24253565073013306 0.4850713014602661
v -0.0 0.5 0.0
vn 0.8401679992675781 0.24253565073013306 0.4850713014602661
v -0.0 -0.5 0.5
vn 0.8401679992675781 0.24253565073013306 0.4850713014602661
f 1//1 2//2 3//3
f 4//4 5//5 6//6
f 7//7 8//8 9//9
f 10//10 11//11 12//12
