<svg xmlns="http://www.w3.org/2000/svg" viewBox="0 -50 50 50">
  <path d="M 0 0 l 0 -50 m 1 50 l 0 -50 m 1 50 l 0 -50 m 1 50 l 0 -50 m 1 50 l 0 -50 m 1 50 l 0 -50 m 1 50 l 0 -50 m 1 50 l 0 -50 m 1 50 l 0 -50 m 1 50 l 0 -50 m 1 50 l 0 -50 m 1 50 l 0 -50 m 1 50 l 0 -50 m 1 50 l 0 -50 m 1 50 l 0 -50 m 1 50 l 0 -50 m 1 50 l 0 -50 m 1 50 l 0 -50 m 1 50 l 0 -50 m 1 50 l 0 -50 m 1 50 l 0 -50 m 1 50 l 0 -50 m 1 50 l 0 -50 m 1 50 l 0 -50 m 1 50 l 0 -50 m 1 50 l 0 -50 m 1 50 l 0 -50 m 1 50 l 0 -50 m 1 50 l 0 -50 m 1 50 l 0 -50 m 1 50 l 0 -50 m 1 50 l 0 -50 m 1 50 l 0 -50 m 1 50 l 0 -50 m 1 50 l 0 -50 m 1 50 l 0 -50 m 1 50 l 0 -50 m 1 50 l 0 -50 m 1 50 l 0 -50 m 1 50 l 0 -50 m 1 50 l 0 -50 m 1 50 l 0 -50 m 1 50 l 0 -50 m 1 50 l 0 -50 m 1 50 l 0 -50 m 1 50 l 0 -50 m 1 50 l 0 -50 m 1 50 l 0 -50 m 1 50 l 0 -50 m 1 50 l 0 -50 m 1 50 l 0 -50 l -50 0 m 50 1 l -50 0 m 50 1 l -50 0 m 50 1 l -50 0 m 50 1 l -50 0 m 50 1 l -50 0 m 50 1 l -50 0 m 50 1 l -50 0 m 50 1 l -50 0 m 50 1 l -50 0 m 50 1 l -50 0 m 50 1 l -50 0 m 50 1 l -50 0 m 50 1 l -50 0 m 50 1 l -50 0 m 50 1 l -50 0 m 50 1 l -50 0 m 50 1 l -50 0 m 50 1 l -50 0 m 50 1 l -50 0 m 50 1 l -50 0 m 50 1 l -50 0 m 50 1 l -50 0 m 50 1 l -50 0 m 50 1 l -50 0 m 50 1 l -50 0 m 50 1 l -50 0 m 50 1 l -50 0 m 50 1 l -50 0 m 50 1 l -50 0 m 50 1 l -50 0 m 50 1 l -50 0 m 50 1 l -50 0 m 50 1 l -50 0 m 50 1 l -50 0 m 50 1 l -50 0 m 50 1 l -50 0 m 50 1 l -50 0 m 50 1 l -50 0 m 50 1 l -50 0 m 50 1 l -50 0 m 50 1 l -50 0 m 50 1 l -50 0 m 50 1 l -50 0 m 50 1 l -50 0 m 50 1 l -50 0 m 50 1 l -50 0 m 50 1 l -50 0 m 50 1 l -50 0 m 50 1 l -50 0 m 50 1 l -50 0" stroke="#5f8bc2" stroke-width=".1" fill="none"/>
</svg>