<svg xmlns="http://www.w3.org/2000/svg" viewBox="183.1 24.24 308.2 283.9">
  <path d="M 337.6 24.24 l -86 87.96 l 61.3 -21.32 c 2.2 27.22 4.6 54.42 6.8 81.82 l -18.6 1.6 c -8.5 8.3 -17 16.9 -25.5 25.4 l 25.8 25.8 l 25.2 -25.1 l 2.4 -17.6 c 29.2 3.8 57.9 7.9 87.1 11.5 l -19.7 44.5 l 94.9 -68 c -38.3 -8 -76.6 -15.6 -114.9 -23.3 l 3.7 -18.3 l 22.9 4.6 l 16.2 -57.25 l -53.3 19.56 l 3.3 28.09 l -18.6 2.2 l -3.8 -32.96 c -3 -23.07 -6.1 -46.13 -9.2 -69.2 z m -106 103.96 L 183.1 211 l 66 -42.7 l 24.4 7 l 25.6 -25.5 l -0.3 -3 l -67.2 -18.6 z m 117.5 76.1 l -19.2 19.2 l 4.5 11 l -49.3 73.6 l 90.3 -55.2 l -17 -47.4 z z" fill="#000000"/>
</svg>