<?xml version="1.0" encoding="utf-8"?>
<!-- Svg Vector Icons : http://www.onlinewebfonts.com/icon -->
<!DOCTYPE svg PUBLIC "-//W3C//DTD SVG 1.1//EN" "http://www.w3.org/Graphics/SVG/1.1/DTD/svg11.dtd">
<svg version="1.1" xmlns="http://www.w3.org/2000/svg" xmlns:xlink="http://www.w3.org/1999/xlink" x="0px" y="0px" viewBox="0 0 1000 1000" enable-background="new 0 0 1000 1000" xml:space="preserve">
<metadata> Svg Vector Icons : http://www.onlinewebfonts.com/icon </metadata>
<g><g transform="translate(0.000000,511.000000) scale(0.100000,-0.100000)"><path d="M4695.6,4995.6c-155.4-50.4-298.1-176.3-329.6-291.8c-10.5-31.5-16.8-543.8-16.8-1137.9c0-995.2,2.1-1087.5,37.8-1156.8c21-39.9,369.5-417.8,776.8-837.7c407.3-419.9,741.1-772.6,745.3-785.2c2.1-12.6-354.8-382.1-793.6-820.9l-797.8-797.8l-413.6,413.6c-228.8,226.7-443,424.1-474.5,436.7c-37.8,12.6-365.3,21-900.7,21c-816.7,0-846.1-2.1-936.3-44.1c-130.2-63-199.5-178.5-210-342.2c-8.4-151.2,31.5-241.4,142.8-331.7C1636.7-767.5,1760.5-780,2468-780h642.4l1291.2-1293.3c709.6-709.6,1326.9-1310,1368.8-1333.1c73.5-37.8,130.2-39.9,1056-39.9c1041.3,0,1035,0,1152.6,102.9c67.2,58.8,117.6,184.7,117.6,296c0,140.7-60.9,258.2-172.2,329.6l-86.1,58.8l-856.6,10.5c-470.3,6.3-858.7,14.7-862.9,21c-4.2,6.3-142.7,149.1-310.7,321.2L5506-1997.7l957.4,961.6c728.5,730.6,970,984.6,1009.8,1066.5c98.7,195.3,105,298.1,88.2,1329l-12.6,953.2l596.2,600.4c329.6,329.6,613.1,632,634,669.7c18.9,42,33.6,119.7,33.6,186.9c0,369.5-411.5,659.2-726.4,512.3c-117.6-54.6-1509.5-1452.8-1553.6-1559.9c-25.2-63-31.5-172.2-31.5-543.8c0-254-6.3-459.8-14.7-455.6c-10.5,4.2-256.2,247.7-545.9,543.7l-531.2,535.4v898.6c0,613.1-8.4,925.9-23.1,980.5c-33.6,107.1-130.2,220.4-235.2,275C5054.6,5004,4792.1,5027.1,4695.6,4995.6z"/><path d="M2827.1-1367.9c-573.1-100.8-967.8-663.4-854.5-1221.9c46.2-228.8,128.1-382.1,287.6-541.7c218.3-218.4,447.2-314.9,745.3-314.9c571.1,2.1,1037.1,468.2,1039.2,1039.2c0,407.3-228.8,774.7-592.1,944.8C3238.5-1361.6,3037-1332.2,2827.1-1367.9z"/><path d="M1105.5-4391.1V-4790H5000h3894.5v398.9v398.9H5000H1105.5V-4391.1z"/></g></g>
</svg>