v 8.418692409861706e-10 -0.004926741123199463 -1.594347942557306e-08
vn -0.0 -1.0 0.0
v 8.418692409861706e-10 0.015267804265022278 0.07256025820970535
vn -0.0 -0.8592791557312012 0.5114902257919312
v -0.027767617255449295 0.015267804265022278 0.067036934196949
vn -0.19571520388126373 -0.8592791557312012 0.47254860401153564
v -5.63586652901904e-08 0.07277703285217285 0.13407382369041443
vn -0.0 -0.5801873803138733 0.8144474625587463
v 8.418692409861706e-10 0.1588456630706787 0.17517594993114471
vn -0.0 -0.23392437398433685 0.9722281694412231
v -0.0670369416475296 0.1588456630706787 0.1618414670228958
vn -0.3720511496067047 -0.23392437398433685 0.8982207775115967
v -0.05130784958600998 0.07277703285217285 0.12386809289455414
vn -0.3116550147533417 -0.5801873803138733 0.7524643540382385
v -1.071518909157021e-07 0.2499999850988388 0.17867597937583923
vn -0.0 0.05081331729888916 0.9986876845359802
v -0.0 0.3456708490848541 0.16507510840892792
vn -0.0 0.3110751807689667 0.9503769278526306
v -0.06317152082920074 0.3456708490848541 0.15250951051712036
vn -0.3636890649795532 0.3110751807689667 0.8780175447463989
v -0.06837635487318039 0.2499999850988388 0.16507510840892792
vn -0.3821832835674286 0.05081331729888916 0.922666072845459
v -5.549351533851166e-10 0.4267767071723938 0.12020470947027206
vn -0.0 0.5964842438697815 0.8026062846183777
v -3.663966552380771e-08 0.4809698760509491 0.06505431979894638
vn -0.0 0.8492385745048523 0.5279701948165894
v -0.02489522099494934 0.4809698760509491 0.06010236218571663
vn -0.20203253626823425 0.8492385745048523 0.48777732253074646
v -0.04600035771727562 0.4267767071723938 0.1110546737909317
vn -0.30713826417922974 0.5964842438697815 0.7415082454681396
v -5.54928769602725e-10 0.5 -3.032619844134388e-08
vn -0.0 1.0 0.0
v -0.09480453282594681 0.07277703285217285 0.09480452537536621
vn -0.5759148001670837 -0.5801873803138733 0.5759148001670837
v -0.051307860761880875 0.015267804265022278 0.051307838410139084
vn -0.36167484521865845 -0.8592791557312012 0.36167484521865845
v -0.1263430416584015 0.2499999850988388 0.1263430118560791
vn -0.7061678171157837 0.05081331729888916 0.7061678171157837
v -0.12386812269687653 0.1588456630706787 0.12386809289455414
vn -0.6874599456787109 -0.23392437398433685 0.6874599456787109
v -0.08499757945537567 0.4267767071723938 0.08499755710363388
vn -0.5675222277641296 0.5964842438697815 0.5675222277641296
v -0.11672575771808624 0.3456708490848541 0.11672572046518326
vn -0.6720175743103027 0.3110751807689667 0.6720175743103027
v -5.54928769602725e-10 0.5 -3.032619844134388e-08
vn -0.0 1.0 0.0
v -0.046000368893146515 0.4809698760509491 0.04600035399198532
vn -0.3733329176902771 0.8492385745048523 0.3733329176902771
v 8.418692409861706e-10 -0.004926741123199463 -1.594347942557306e-08
vn -0.0 -1.0 0.0
v -0.1650751382112503 0.2499999850988388 0.0683763176202774
vn -0.922666072845459 0.05081331729888916 0.3821832835674286
v -0.1618414968252182 0.1588456630706787 0.06703691184520721
vn -0.8982207775115967 -0.23392437398433685 0.3720511496067047
v -0.11105469614267349 0.4267767071723938 0.04600033164024353
vn -0.7415082454681396 0.5964842438697815 0.30713826417922974
v -0.15250955522060394 0.3456708490848541 0.06317149102687836
vn -0.8780175447463989 0.3110751807689667 0.3636890649795532
v -5.54928769602725e-10 0.5 -3.032619844134388e-08
vn -0.0 1.0 0.0
v -0.06010237708687782 0.4809698760509491 0.024895206093788147
vn -0.48777732253074646 0.8492385745048523 0.20203253626823425
v 8.418692409861706e-10 -0.004926741123199463 -1.594347942557306e-08
vn -0.0 -1.0 0.0
v -0.0670369490981102 0.015267804265022278 0.027767593041062355
vn -0.47254860401153564 -0.8592791557312012 0.19571520388126373
v -0.12386811524629593 0.07277703285217285 0.05130782350897789
vn -0.7524643540382385 -0.5801873803138733 0.3116550147533417
v 8.418692409861706e-10 -0.004926741123199463 -1.594347942557306e-08
vn -0.0 -1.0 0.0
v -0.07256027311086655 0.015267804265022278 -2.323227477063483e-08
vn -0.5114902257919312 -0.8592791557312012 0.0
v -0.1751759648323059 0.1588456630706787 -4.018464494492946e-08
vn -0.9722281694412231 -0.23392437398433685 0.0
v -0.1340738832950592 0.07277703285217285 -3.453385133411757e-08
vn -0.8144474625587463 -0.5801873803138733 0.0
v -0.1650751382112503 0.3456708490848541 -3.8463749518768964e-08
vn -0.9503769278526306 0.3110751807689667 0.0
v -0.17867600917816162 0.2499999850988388 -4.378870954724334e-08
vn -0.9986876845359802 0.05081331729888916 0.0
v -0.06505434215068817 0.4809698760509491 -1.6933313418121543e-08
vn -0.5279701948165894 0.8492385745048523 0.0
v -0.12020473182201385 0.4267767071723938 -3.2132064120560244e-08
vn -0.8026062846183777 0.5964842438697815 0.0
v -5.54928769602725e-10 0.5 -3.032619844134388e-08
vn -0.0 1.0 0.0
v -0.15250952541828156 0.3456708490848541 -0.06317155808210373
vn -0.8780175447463989 0.3110751807689667 -0.3636890649795532
v -0.16507509350776672 0.2499999850988388 -0.06837639212608337
vn -0.922666072845459 0.05081331729888916 -0.3821832835674286
v -0.060102369636297226 0.4809698760509491 -0.024895237758755684
vn -0.48777732253074646 0.8492385745048523 -0.20203253626823425
v -0.11105469614267349 0.4267767071723938 -0.046000394970178604
vn -0.7415082454681396 0.5964842438697815 -0.30713826417922974
v -0.12386811524629593 0.07277703285217285 -0.05130789056420326
vn -0.7524643540382385 -0.5801873803138733 -0.3116550147533417
v -0.0670369416475296 0.015267804265022278 -0.027767637744545937
vn -0.47254860401153564 -0.8592791557312012 -0.19571520388126373
v -0.161841481924057 0.1588456630706787 -0.06703697890043259
vn -0.8982207775115967 -0.23392437398433685 -0.3720511496067047
v -5.54928769602725e-10 0.5 -3.032619844134388e-08
vn -0.0 1.0 0.0
v 8.418692409861706e-10 -0.004926741123199463 -1.594347942557306e-08
vn -0.0 -1.0 0.0
v -0.09480453282594681 0.07277703285217285 -0.09480457752943039
vn -0.5759148001670837 -0.5801873803138733 -0.5759148001670837
v -0.05130784213542938 0.015267804265022278 -0.05130787938833237
vn -0.36167484521865845 -0.8592791557312012 -0.36167484521865845
v -0.1263429969549179 0.2499999850988388 -0.12634305655956268
vn -0.7061678171157837 0.05081331729888916 -0.7061678171157837
v -0.12386809289455414 0.1588456630706787 -0.12386815249919891
vn -0.6874599456787109 -0.23392437398433685 -0.6874599456787109
v -0.08499757945537567 0.4267767071723938 -0.08499761670827866
vn -0.5675222277641296 0.5964842438697815 -0.5675222277641296
v -0.11672572046518326 0.3456708490848541 -0.11672578752040863
vn -0.6720175743103027 0.3110751807689667 -0.6720175743103027
v -5.54928769602725e-10 0.5 -3.032619844134388e-08
vn -0.0 1.0 0.0
v -0.04600035771727562 0.4809698760509491 -0.04600038751959801
vn -0.3733329176902771 0.8492385745048523 -0.3733329176902771
v 8.418692409861706e-10 -0.004926741123199463 -1.594347942557306e-08
vn -0.0 -1.0 0.0
v -0.04600035026669502 0.4267767071723938 -0.11105471104383469
vn -0.30713826417922974 0.5964842438697815 -0.7415082454681396
v -0.06317148357629776 0.3456708490848541 -0.15250955522060394
vn -0.3636890649795532 0.3110751807689667 -0.8780175447463989
v -5.54928769602725e-10 0.5 -3.032619844134388e-08
vn -0.0 1.0 0.0
v -0.024895207956433296 0.4809698760509491 -0.06010238826274872
vn -0.20203253626823425 0.8492385745048523 -0.48777732253074646
v 8.418692409861706e-10 -0.004926741123199463 -1.594347942557306e-08
vn -0.0 -1.0 0.0
v -0.027767594903707504 0.015267804265022278 -0.0670369565486908
vn -0.19571520388126373 -0.8592791557312012 -0.47254860401153564
v -0.06703689694404602 0.1588456630706787 -0.1618415117263794
vn -0.3720511496067047 -0.23392437398433685 -0.8982207775115967
v -0.051307838410139084 0.07277703285217285 -0.12386813759803772
vn -0.3116550147533417 -0.5801873803138733 -0.7524643540382385
v -0.06837631016969681 0.2499999850988388 -0.1650751382112503
vn -0.3821832835674286 0.05081331729888916 -0.922666072845459
v 8.418692409861706e-10 -0.004926741123199463 -1.594347942557306e-08
vn -0.0 -1.0 0.0
v 1.710161257051368e-08 0.015267804265022278 -0.07256027311086655
vn -0.0 -0.8592791557312012 -0.5114902257919312
v 5.1006356471816616e-08 0.1588456630706787 -0.1751759648323059
vn -0.0 -0.23392437398433685 -0.9722281694412231
v 1.710161257051368e-08 0.07277703285217285 -0.1340738832950592
vn -0.0 -0.5801873803138733 -0.8144474625587463
v 4.72719499100549e-08 0.3456708490848541 -0.1650751382112503
vn -0.0 0.3110751807689667 -0.9503769278526306
v 5.259690993852928e-08 0.2499999850988388 -0.17867602407932281
vn -0.0 0.05081331729888916 -0.9986876845359802
v 1.1489709628165201e-08 0.4809698760509491 -0.06505434960126877
vn -0.0 0.8492385745048523 -0.5279701948165894
v 1.4022836225535684e-08 0.4267767071723938 -0.12020473927259445
vn -0.0 0.5964842438697815 -0.8026062846183777
v -5.54928769602725e-10 0.5 -3.032619844134388e-08
vn -0.0 1.0 0.0
v 0.024895228445529938 0.4809698760509491 -0.060102369636297226
vn 0.20203253626823425 0.8492385745048523 -0.48777732253074646
v 0.04600038006901741 0.4267767071723938 -0.11105469614267349
vn 0.30713826417922974 0.5964842438697815 -0.7415082454681396
v 0.05130787566304207 0.07277703285217285 -0.12386811524629593
vn 0.3116550147533417 -0.5801873803138733 -0.7524643540382385
v 0.027767624706029892 0.015267804265022278 -0.0670369416475296
vn 0.19571520388126373 -0.8592791557312012 -0.47254860401153564
v 0.06837640702724457 0.2499999850988388 -0.16507510840892792
vn 0.3821832835674286 0.05081331729888916 -0.922666072845459
v 0.06703698635101318 0.1588456630706787 -0.16184145212173462
vn 0.3720511496067047 -0.23392437398433685 -0.8982207775115967
v 0.06317155808210373 0.3456708490848541 -0.15250951051712036
vn 0.3636890649795532 0.3110751807689667 -0.8780175447463989
v -5.54928769602725e-10 0.5 -3.032619844134388e-08
vn -0.0 1.0 0.0
v 8.418692409861706e-10 -0.004926741123199463 -1.594347942557306e-08
vn -0.0 -1.0 0.0
v 0.0948045551776886 0.07277703285217285 -0.09480453282594681
vn 0.5759148001670837 -0.5801873803138733 -0.5759148001670837
v 0.05130786448717117 0.015267804265022278 -0.05130784213542938
vn 0.36167484521865845 -0.8592791557312012 -0.36167484521865845
v 0.12634305655956268 0.2499999850988388 -0.1263429820537567
vn 0.7061678171157837 0.05081331729888916 -0.7061678171157837
v 0.12386813759803772 0.1588456630706787 -0.12386805564165115
vn 0.6874599456787109 -0.23392437398433685 -0.6874599456787109
v 0.08499759435653687 0.4267767071723938 -0.08499757200479507
vn 0.5675222277641296 0.5964842438697815 -0.5675222277641296
v 0.11672576516866684 0.3456708490848541 -0.11672569811344147
vn 0.6720175743103027 0.3110751807689667 -0.6720175743103027
v -5.54928769602725e-10 0.5 -3.032619844134388e-08
vn -0.0 1.0 0.0
v 0.046000368893146515 0.4809698760509491 -0.04600035771727562
vn 0.3733329176902771 0.8492385745048523 -0.3733329176902771
v 8.418692409861706e-10 -0.004926741123199463 -1.594347942557306e-08
vn -0.0 -1.0 0.0
v -5.54928769602725e-10 0.5 -3.032619844134388e-08
vn -0.0 1.0 0.0
v 0.060102369636297226 0.4809698760509491 -0.024895209819078445
vn 0.48777732253074646 0.8492385745048523 -0.20203253626823425
v 8.418692409861706e-10 -0.004926741123199463 -1.594347942557306e-08
vn -0.0 -1.0 0.0
v 0.0670369416475296 0.015267804265022278 -0.027767598628997803
vn 0.47254860401153564 -0.8592791557312012 -0.19571520388126373
v 0.1618414670228958 0.1588456630706787 -0.06703688204288483
vn 0.8982207775115967 -0.23392437398433685 -0.3720511496067047
v 0.12386810034513474 0.07277703285217285 -0.05130783095955849
vn 0.7524643540382385 -0.5801873803138733 -0.3116550147533417
v 0.15250951051712036 0.3456708490848541 -0.06317146867513657
vn 0.8780175447463989 0.3110751807689667 -0.3636890649795532
v 0.1650751233100891 0.2499999850988388 -0.06837629526853561
vn 0.922666072845459 0.05081331729888916 -0.3821832835674286
v 0.1110546812415123 0.4267767071723938 -0.046000342816114426
vn 0.7415082454681396 0.5964842438697815 -0.30713826417922974
v 0.17517590522766113 0.1588456630706787 5.022800309006925e-08
vn 0.9722281694412231 -0.23392437398433685 0.0
v 0.13407383859157562 0.07277703285217285 1.6323259188766315e-08
vn 0.8144474625587463 -0.5801873803138733 0.0
v 0.16507506370544434 0.3456708490848541 4.6735610936821104e-08
vn 0.9503769278526306 0.3110751807689667 0.0
v 0.17867599427700043 0.2499999850988388 6.271049102224424e-08
vn 0.9986876845359802 0.05081331729888916 0.0
v 0.06505433470010757 0.4809698760509491 8.397936568371733e-09
vn 0.5279701948165894 0.8492385745048523 0.0
v 0.12020470201969147 0.4267767071723938 1.346418621039902e-08
vn 0.8026062846183777 0.5964842438697815 0.0
v 0.07256025075912476 0.015267804265022278 1.349786238336037e-08
vn 0.5114902257919312 -0.8592791557312012 0.0
v -5.54928769602725e-10 0.5 -3.032619844134388e-08
vn -0.0 1.0 0.0
v 8.418692409861706e-10 -0.004926741123199463 -1.594347942557306e-08
vn -0.0 -1.0 0.0
v 0.07256025075912476 0.015267804265022278 1.349786238336037e-08
vn 0.5114902257919312 -0.8592791557312012 0.0
v 0.13407383859157562 0.07277703285217285 1.6323259188766315e-08
vn 0.8144474625587463 -0.5801873803138733 0.0
v 0.12386804819107056 0.07277703285217285 0.05130786448717117
vn 0.7524643540382385 -0.5801873803138733 0.3116550147533417
v 0.06703691929578781 0.015267804265022278 0.027767619118094444
vn 0.47254860401153564 -0.8592791557312012 0.19571520388126373
v 0.17517590522766113 0.1588456630706787 5.022800309006925e-08
vn 0.9722281694412231 -0.23392437398433685 0.0
v 0.17867599427700043 0.2499999850988388 6.271049102224424e-08
vn 0.9986876845359802 0.05081331729888916 0.0
v 0.16507506370544434 0.2499999850988388 0.06837640702724457
vn 0.922666072845459 0.05081331729888916 0.3821832835674286
v 0.16184139251708984 0.1588456630706787 0.0670369565486908
vn 0.8982207775115967 -0.23392437398433685 0.3720511496067047
v 0.16507506370544434 0.3456708490848541 4.6735610936821104e-08
vn 0.9503769278526306 0.3110751807689667 0.0
v 0.12020470201969147 0.4267767071723938 1.346418621039902e-08
vn 0.8026062846183777 0.5964842438697815 0.0
v 0.11105463653802872 0.4267767071723938 0.046000368893146515
vn 0.7415082454681396 0.5964842438697815 0.30713826417922974
v 0.1525094360113144 0.3456708490848541 0.06317154318094254
vn 0.8780175447463989 0.3110751807689667 0.3636890649795532
v 0.06505433470010757 0.4809698760509491 8.397936568371733e-09
vn 0.5279701948165894 0.8492385745048523 0.0
v -5.54928769602725e-10 0.5 -3.032619844134388e-08
vn -0.0 1.0 0.0
v 0.060102351009845734 0.4809698760509491 0.02489522658288479
vn 0.48777732253074646 0.8492385745048523 0.20203253626823425
v 8.418692409861706e-10 -0.004926741123199463 -1.594347942557306e-08
vn -0.0 -1.0 0.0
v 0.12634293735027313 0.2499999850988388 0.12634305655956268
vn 0.7061678171157837 0.05081331729888916 0.7061678171157837
v 0.12386799603700638 0.1588456630706787 0.12386810034513474
vn 0.6874599456787109 -0.23392437398433685 0.6874599456787109
v 0.0849975198507309 0.4267767071723938 0.08499757200479507
vn 0.5675222277641296 0.5964842438697815 0.5675222277641296
v 0.11672563850879669 0.3456708490848541 0.11672573536634445
vn 0.6720175743103027 0.3110751807689667 0.6720175743103027
v -5.54928769602725e-10 0.5 -3.032619844134388e-08
vn -0.0 1.0 0.0
v 0.04600033164024353 0.4809698760509491 0.046000365167856216
vn 0.3733329176902771 0.8492385745048523 0.3733329176902771
v 8.418692409861706e-10 -0.004926741123199463 -1.594347942557306e-08
vn -0.0 -1.0 0.0
v 0.05130781605839729 0.015267804265022278 0.051307860761880875
vn 0.36167484521865845 -0.8592791557312012 0.36167484521865845
v 0.09480448812246323 0.07277703285217285 0.09480453282594681
vn 0.5759148001670837 -0.5801873803138733 0.5759148001670837
v 8.418692409861706e-10 -0.004926741123199463 -1.594347942557306e-08
vn -0.0 -1.0 0.0
v 0.027767568826675415 0.015267804265022278 0.067036934196949
vn 0.19571520388126373 -0.8592791557312012 0.47254860401153564
v 0.06703682243824005 0.1588456630706787 0.16184143722057343
vn 0.3720511496067047 -0.23392437398433685 0.8982207775115967
v 0.051307789981365204 0.07277703285217285 0.12386807799339294
vn 0.3116550147533417 -0.5801873803138733 0.7524643540382385
v 0.06317140907049179 0.3456708490848541 0.15250948071479797
vn 0.3636890649795532 0.3110751807689667 0.8780175447463989
v 0.06837624311447144 0.2499999850988388 0.16507510840892792
vn 0.3821832835674286 0.05081331729888916 0.922666072845459
v 0.024895181879401207 0.4809698760509491 0.06010236218571663
vn 0.20203253626823425 0.8492385745048523 0.48777732253074646
v 0.04600030183792114 0.4267767071723938 0.11105465888977051
vn 0.30713826417922974 0.5964842438697815 0.7415082454681396
v -5.54928769602725e-10 0.5 -3.032619844134388e-08
vn -0.0 1.0 0.0
v -5.54928769602725e-10 0.5 -3.032619844134388e-08
vn -0.0 1.0 0.0
v 8.418692409861706e-10 -0.004926741123199463 -1.594347942557306e-08
vn -0.0 -1.0 0.0
f 1//1 2//2 3//3
f 4//4 5//5 6//6
f 4//4 6//6 7//7
f 8//8 9//9 10//10
f 8//8 10//10 11//11
f 12//12 13//13 14//14
f 12//12 14//14 15//15
f 2//2 4//4 7//7
f 2//2 7//7 3//3
f 5//5 8//8 11//11
f 5//5 11//11 6//6
f 9//9 12//12 15//15
f 9//9 15//15 10//10
f 13//13 16//16 14//14
f 3//3 7//7 17//17
f 3//3 17//17 18//18
f 6//6 11//11 19//19
f 6//6 19//19 20//20
f 10//10 15//15 21//21
f 10//10 21//21 22//22
f 14//14 23//23 24//24
f 25//25 3//3 18//18
f 7//7 6//6 20//20
f 7//7 20//20 17//17
f 11//11 10//10 22//22
f 11//11 22//22 19//19
f 15//15 14//14 24//24
f 15//15 24//24 21//21
f 20//20 19//19 26//26
f 20//20 26//26 27//27
f 22//22 21//21 28//28
f 22//22 28//28 29//29
f 24//24 30//30 31//31
f 32//32 18//18 33//33
f 17//17 20//20 27//27
f 17//17 27//27 34//34
f 19//19 22//22 29//29
f 19//19 29//29 26//26
f 21//21 24//24 31//31
f 21//21 31//31 28//28
f 18//18 17//17 34//34
f 18//18 34//34 33//33
f 35//35 33//33 36//36
f 34//34 27//27 37//37
f 34//34 37//37 38//38
f 26//26 29//29 39//39
f 26//26 39//39 40//40
f 28//28 31//31 41//41
f 28//28 41//41 42//42
f 33//33 34//34 38//38
f 33//33 38//38 36//36
f 27//27 26//26 40//40
f 27//27 40//40 37//37
f 29//29 28//28 42//42
f 29//29 42//42 39//39
f 31//31 43//43 41//41
f 40//40 39//39 44//44
f 40//40 44//44 45//45
f 42//42 41//41 46//46
f 42//42 46//46 47//47
f 36//36 38//38 48//48
f 36//36 48//48 49//49
f 37//37 40//40 45//45
f 37//37 45//45 50//50
f 39//39 42//42 47//47
f 39//39 47//47 44//44
f 41//41 51//51 46//46
f 52//52 36//36 49//49
f 38//38 37//37 50//50
f 38//38 50//50 48//48
f 49//49 48//48 53//53
f 49//49 53//53 54//54
f 50//50 45//45 55//55
f 50//50 55//55 56//56
f 44//44 47//47 57//57
f 44//44 57//57 58//58
f 46//46 59//59 60//60
f 61//61 49//49 54//54
f 48//48 50//50 56//56
f 48//48 56//56 53//53
f 45//45 44//44 58//58
f 45//45 58//58 55//55
f 47//47 46//46 60//60
f 47//47 60//60 57//57
f 58//58 57//57 62//62
f 58//58 62//62 63//63
f 60//60 64//64 65//65
f 66//66 54//54 67//67
f 53//53 56//56 68//68
f 53//53 68//68 69//69
f 55//55 58//58 63//63
f 55//55 63//63 70//70
f 57//57 60//60 65//65
f 57//57 65//65 62//62
f 54//54 53//53 69//69
f 54//54 69//69 67//67
f 56//56 55//55 70//70
f 56//56 70//70 68//68
f 71//71 67//67 72//72
f 69//69 68//68 73//73
f 69//69 73//73 74//74
f 70//70 63//63 75//75
f 70//70 75//75 76//76
f 62//62 65//65 77//77
f 62//62 77//77 78//78
f 67//67 69//69 74//74
f 67//67 74//74 72//72
f 68//68 70//70 76//76
f 68//68 76//76 73//73
f 63//63 62//62 78//78
f 63//63 78//78 75//75
f 65//65 79//79 77//77
f 78//78 77//77 80//80
f 78//78 80//80 81//81
f 72//72 74//74 82//82
f 72//72 82//82 83//83
f 73//73 76//76 84//84
f 73//73 84//84 85//85
f 75//75 78//78 81//81
f 75//75 81//81 86//86
f 77//77 87//87 80//80
f 88//88 72//72 83//83
f 74//74 73//73 85//85
f 74//74 85//85 82//82
f 76//76 75//75 86//86
f 76//76 86//86 84//84
f 83//83 82//82 89//89
f 83//83 89//89 90//90
f 85//85 84//84 91//91
f 85//85 91//91 92//92
f 86//86 81//81 93//93
f 86//86 93//93 94//94
f 80//80 95//95 96//96
f 97//97 83//83 90//90
f 82//82 85//85 92//92
f 82//82 92//92 89//89
f 84//84 86//86 94//94
f 84//84 94//94 91//91
f 81//81 80//80 96//96
f 81//81 96//96 93//93
f 96//96 98//98 99//99
f 100//100 90//90 101//101
f 89//89 92//92 102//102
f 89//89 102//102 103//103
f 91//91 94//94 104//104
f 91//91 104//104 105//105
f 93//93 96//96 99//99
f 93//93 99//99 106//106
f 90//90 89//89 103//103
f 90//90 103//103 101//101
f 92//92 91//91 105//105
f 92//92 105//105 102//102
f 94//94 93//93 106//106
f 94//94 106//106 104//104
f 103//103 102//102 107//107
f 103//103 107//107 108//108
f 105//105 104//104 109//109
f 105//105 109//109 110//110
f 106//106 99//99 111//111
f 106//106 111//111 112//112
f 101//101 103//103 108//108
f 101//101 108//108 113//113
f 102//102 105//105 110//110
f 102//102 110//110 107//107
f 104//104 106//106 112//112
f 104//104 112//112 109//109
f 99//99 114//114 111//111
f 115//115 101//101 113//113
f 116//116 117//117 118//118
f 116//116 118//118 119//119
f 120//120 121//121 122//122
f 120//120 122//122 123//123
f 124//124 125//125 126//126
f 124//124 126//126 127//127
f 128//128 129//129 130//130
f 131//131 116//116 119//119
f 117//117 120//120 123//123
f 117//117 123//123 118//118
f 121//121 124//124 127//127
f 121//121 127//127 122//122
f 125//125 128//128 130//130
f 125//125 130//130 126//126
f 123//123 122//122 132//132
f 123//123 132//132 133//133
f 127//127 126//126 134//134
f 127//127 134//134 135//135
f 130//130 136//136 137//137
f 138//138 119//119 139//139
f 118//118 123//123 133//133
f 118//118 133//133 140//140
f 122//122 127//127 135//135
f 122//122 135//135 132//132
f 126//126 130//130 137//137
f 126//126 137//137 134//134
f 119//119 118//118 140//140
f 119//119 140//140 139//139
f 141//141 139//139 142//142
f 140//140 133//133 143//143
f 140//140 143//143 144//144
f 132//132 135//135 145//145
f 132//132 145//145 146//146
f 134//134 137//137 147//147
f 134//134 147//147 148//148
f 139//139 140//140 144//144
f 139//139 144//144 142//142
f 133//133 132//132 146//146
f 133//133 146//146 143//143
f 135//135 134//134 148//148
f 135//135 148//148 145//145
f 137//137 149//149 147//147
f 146//146 145//145 9//9
f 146//146 9//9 8//8
f 148//148 147//147 13//13
f 148//148 13//13 12//12
f 142//142 144//144 4//4
f 142//142 4//4 2//2
f 143//143 146//146 8//8
f 143//143 8//8 5//5
f 145//145 148//148 12//12
f 145//145 12//12 9//9
f 147//147 150//150 13//13
f 151//151 142//142 2//2
f 144//144 143//143 5//5
f 144//144 5//5 4//4
