v -0.0 -0.5 0.5
vn -0.8660253882408142 0.0 0.4999999701976776
v -0.0 0.5 0.5
vn -0.8660253882408142 0.0 0.4999999701976776
v -0.4330126941204071 0.5 -0.2500000298023224
vn -0.8660253882408142 0.0 0.4999999701976776
v -0.4330126941204071 -0.5 -0.2500000298023224
vn -0.8660253882408142 0.0 0.4999999701976776
v -0.4330126941204071 -0.5 -0.2500000298023224
vn 8.603188916822546e-08 0.0 -1.0
v -0.4330126941204071 0.5 -0.2500000298023224
vn 8.603188916822546e-08 0.0 -1.0
v 0.4330127239227295 0.5 -0.24999995529651642
vn 8.603188916822546e-08 0.0 -1.0
v 0.4330127239227295 -0.5 -0.24999995529651642
vn 8.603188916822546e-08 0.0 -1.0
v -0.4330126941204071 0.5 -0.2500000298023224
vn -0.0 1.0 0.0
v -0.0 0.5 0.5
vn -0.0 1.0 0.0
v 0.4330127239227295 0.5 -0.24999995529651642
vn -0.0 1.0 0.0
v 0.4330127239227295 -0.5 -0.24999995529651642
vn 0.8660253286361694 0.0 0.5
v 0.4330127239227295 0.5 -0.24999995529651642
vn 0.8660253286361694 0.0 0.5
v -0.0 0.5 0.5
vn 0.8660253286361694 0.0 0.5
v -0.0 -0.5 0.5
vn 0.8660253286361694 0.0 0.5
v -0.0 -0.5 0.5
vn -2.294183687467921e-08 -1.0 0.0
v -0.4330126941204071 -0.5 -0.2500000298023224
vn -2.294183687467921e-08 -1.0 0.0
v 0.4330127239227295 -0.5 -0.24999995529651642
vn -2.294183687467921e-08 -1.0 0.0
f 1//1 2//2 3//3
f 1//1 3//3 4//4
f 5//5 6//6 7//7
f 5//5 7//7 8//8
f 9//9 10//10 11//11
f 12//12 13//13 14//14
f 12//12 14//14 15//15
f 16//16 17//17 18//18
